<svg width="1200" height="800" xmlns="http://www.w3.org/2000/svg">
  <defs>
    <linearGradient id="bg9" x1="0%" y1="0%" x2="100%" y2="100%">
      <stop offset="0%" style="stop-color:#4c1d95;stop-opacity:1" />
      <stop offset="100%" style="stop-color:#7c3aed;stop-opacity:1" />
    </linearGradient>
  </defs>
  <rect width="1200" height="800" fill="url(#bg9)"/>
  
  <!-- Header -->
  <rect x="0" y="0" width="1200" height="80" fill="#5b21b6" opacity="0.9"/>
  <text x="40" y="50" font-family="Arial, sans-serif" font-size="24" font-weight="bold" fill="white">Contract Analyse Dashboard</text>
  
  <!-- Stats -->
  <rect x="40" y="120" width="260" height="150" rx="8" fill="white" opacity="0.95"/>
  <text x="60" y="160" font-family="Arial, sans-serif" font-size="14" fill="#6b7280">Totaal Contracten</text>
  <text x="60" y="200" font-family="Arial, sans-serif" font-size="36" font-weight="bold" fill="#7c3aed">47</text>
  <text x="60" y="230" font-family="Arial, sans-serif" font-size="12" fill="#10b981">42 actief</text>
  
  <rect x="320" y="120" width="260" height="150" rx="8" fill="white" opacity="0.95"/>
  <text x="340" y="160" font-family="Arial, sans-serif" font-size="14" fill="#6b7280">Vragen Beantwoord</text>
  <text x="340" y="200" font-family="Arial, sans-serif" font-size="36" font-weight="bold" fill="#7c3aed">1,247</text>
  <text x="340" y="230" font-family="Arial, sans-serif" font-size="12" fill="#10b981">deze maand</text>
  
  <rect x="600" y="120" width="260" height="150" rx="8" fill="white" opacity="0.95"/>
  <text x="620" y="160" font-family="Arial, sans-serif" font-size="14" fill="#6b7280">Gemiddelde Responstijd</text>
  <text x="620" y="200" font-family="Arial, sans-serif" font-size="36" font-weight="bold" fill="#7c3aed">0.8s</text>
  <text x="620" y="230" font-family="Arial, sans-serif" font-size="12" fill="#10b981">Instant antwoord</text>
  
  <rect x="880" y="120" width="260" height="150" rx="8" fill="white" opacity="0.95"/>
  <text x="900" y="160" font-family="Arial, sans-serif" font-size="14" fill="#6b7280">Nauwkeurigheid</text>
  <text x="900" y="200" font-family="Arial, sans-serif" font-size="36" font-weight="bold" fill="#7c3aed">98.2%</text>
  <text x="900" y="230" font-family="Arial, sans-serif" font-size="12" fill="#10b981">AI Score</text>
  
  <!-- Usage Chart -->
  <rect x="40" y="300" width="550" height="440" rx="8" fill="white" opacity="0.95"/>
  <text x="60" y="340" font-family="Arial, sans-serif" font-size="20" font-weight="bold" fill="#4c1d95">Gebruik Over Tijd</text>
  
  <!-- Chart Bars -->
  <rect x="100" y="600" width="50" height="100" fill="#7c3aed" rx="4"/>
  <text x="115" y="720" font-family="Arial, sans-serif" font-size="10" fill="#6b7280">Ma</text>
  
  <rect x="180" y="580" width="50" height="120" fill="#7c3aed" rx="4"/>
  <text x="195" y="720" font-family="Arial, sans-serif" font-size="10" fill="#6b7280">Di</text>
  
  <rect x="260" y="550" width="50" height="150" fill="#7c3aed" rx="4"/>
  <text x="275" y="720" font-family="Arial, sans-serif" font-size="10" fill="#6b7280">Wo</text>
  
  <rect x="340" y="520" width="50" height="180" fill="#7c3aed" rx="4"/>
  <text x="355" y="720" font-family="Arial, sans-serif" font-size="10" fill="#6b7280">Do</text>
  
  <rect x="420" y="490" width="50" height="210" fill="#7c3aed" rx="4"/>
  <text x="435" y="720" font-family="Arial, sans-serif" font-size="10" fill="#6b7280">Vr</text>
  
  <!-- Top Questions -->
  <rect x="620" y="300" width="520" height="440" rx="8" fill="white" opacity="0.95"/>
  <text x="640" y="340" font-family="Arial, sans-serif" font-size="20" font-weight="bold" fill="#4c1d95">Meest Gestelde Vragen</text>
  
  <rect x="640" y="370" width="480" height="80" rx="4" fill="#f3f4f6"/>
  <text x="660" y="400" font-family="Arial, sans-serif" font-size="14" font-weight="bold" fill="#1e293b">1. Wat zijn de leveringsvoorwaarden?</text>
  <text x="660" y="425" font-family="Arial, sans-serif" font-size="12" fill="#6b7280">247 keer gevraagd deze maand</text>
  <text x="660" y="445" font-family="Arial, sans-serif" font-size="12" fill="#10b981">98.5% tevredenheid</text>
  
  <rect x="640" y="470" width="480" height="80" rx="4" fill="#f3f4f6"/>
  <text x="660" y="500" font-family="Arial, sans-serif" font-size="14" font-weight="bold" fill="#1e293b">2. Welke leveranciers zijn goedgekeurd?</text>
  <text x="660" y="525" font-family="Arial, sans-serif" font-size="12" fill="#6b7280">189 keer gevraagd deze maand</text>
  <text x="660" y="545" font-family="Arial, sans-serif" font-size="12" fill="#10b981">97.2% tevredenheid</text>
  
  <rect x="640" y="570" width="480" height="80" rx="4" fill="#f3f4f6"/>
  <text x="660" y="600" font-family="Arial, sans-serif" font-size="14" font-weight="bold" fill="#1e293b">3. Wat zijn de prijsafspraken?</text>
  <text x="660" y="625" font-family="Arial, sans-serif" font-size="12" fill="#6b7280">156 keer gevraagd deze maand</text>
  <text x="660" y="645" font-family="Arial, sans-serif" font-size="12" fill="#10b981">96.8% tevredenheid</text>
  
  <rect x="640" y="670" width="480" height="50" rx="4" fill="#eff6ff" stroke="#7c3aed" stroke-width="2"/>
  <text x="660" y="695" font-family="Arial, sans-serif" font-size="14" font-weight="bold" fill="#4c1d95">AI Learning Status</text>
  <text x="660" y="715" font-family="Arial, sans-serif" font-size="12" fill="#1e40af">Model verbetert met 12% deze maand</text>
</svg>

