<svg width="1200" height="800" xmlns="http://www.w3.org/2000/svg">
  <defs>
    <linearGradient id="bg15" x1="0%" y1="0%" x2="100%" y2="100%">
      <stop offset="0%" style="stop-color:#0c4a6e;stop-opacity:1" />
      <stop offset="100%" style="stop-color:#0284c7;stop-opacity:1" />
    </linearGradient>
  </defs>
  <rect width="1200" height="800" fill="url(#bg15)"/>
  
  <!-- Header -->
  <rect x="0" y="0" width="1200" height="80" fill="#075985" opacity="0.9"/>
  <text x="40" y="50" font-family="Arial, sans-serif" font-size="24" font-weight="bold" fill="white">Financiële Rapportages</text>
  
  <!-- Report Cards -->
  <rect x="40" y="120" width="360" height="200" rx="8" fill="white" opacity="0.95"/>
  <text x="60" y="160" font-family="Arial, sans-serif" font-size="18" font-weight="bold" fill="#0c4a6e">BTW Rapport Q1 2024</text>
  <text x="60" y="190" font-family="Arial, sans-serif" font-size="14" fill="#6b7280">Klaar voor aangifte</text>
  <text x="60" y="220" font-family="Arial, sans-serif" font-size="14" fill="#1e293b">BTW Te Betalen: € 884</text>
  <text x="60" y="245" font-family="Arial, sans-serif" font-size="14" fill="#1e293b">BTW Te Ontvangen: € 525</text>
  <text x="60" y="270" font-family="Arial, sans-serif" font-size="14" fill="#1e293b">Netto BTW: € 359</text>
  <rect x="60" y="285" width="320" height="20" rx="4" fill="#eff6ff"/>
  <text x="70" y="298" font-family="Arial, sans-serif" font-size="12" fill="#0284c7">📄 Download PDF</text>
  
  <rect x="420" y="120" width="360" height="200" rx="8" fill="white" opacity="0.95"/>
  <text x="440" y="160" font-family="Arial, sans-serif" font-size="18" font-weight="bold" fill="#0c4a6e">Winst &amp; Verlies</text>
  <text x="440" y="190" font-family="Arial, sans-serif" font-size="14" fill="#6b7280">Maart 2024</text>
  <text x="440" y="220" font-family="Arial, sans-serif" font-size="14" fill="#1e293b">Totaal Inkomen: € 12.450</text>
  <text x="440" y="245" font-family="Arial, sans-serif" font-size="14" fill="#1e293b">Totaal Uitgaven: € 8.230</text>
  <text x="440" y="270" font-family="Arial, sans-serif" font-size="16" font-weight="bold" fill="#10b981">Netto Winst: € 4.220</text>
  <rect x="440" y="285" width="320" height="20" rx="4" fill="#eff6ff"/>
  <text x="450" y="298" font-family="Arial, sans-serif" font-size="12" fill="#0284c7">📄 Download PDF</text>
  
  <rect x="800" y="120" width="360" height="200" rx="8" fill="white" opacity="0.95"/>
  <text x="820" y="160" font-family="Arial, sans-serif" font-size="18" font-weight="bold" fill="#0c4a6e">Grootboek Overzicht</text>
  <text x="820" y="190" font-family="Arial, sans-serif" font-size="14" fill="#6b7280">Q1 2024</text>
  <text x="820" y="220" font-family="Arial, sans-serif" font-size="14" fill="#1e293b">Alle transacties gecategoriseerd</text>
  <text x="820" y="245" font-family="Arial, sans-serif" font-size="14" fill="#1e293b">BTW automatisch berekend</text>
  <text x="820" y="270" font-family="Arial, sans-serif" font-size="14" fill="#10b981">100% accuraat</text>
  <rect x="820" y="285" width="320" height="20" rx="4" fill="#eff6ff"/>
  <text x="830" y="298" font-family="Arial, sans-serif" font-size="12" fill="#0284c7">📄 Download Excel</text>
  
  <!-- Chart -->
  <rect x="40" y="350" width="750" height="390" rx="8" fill="white" opacity="0.95"/>
  <text x="60" y="390" font-family="Arial, sans-serif" font-size="20" font-weight="bold" fill="#0c4a6e">Inkomsten vs Uitgaven</text>
  
  <!-- Chart Area -->
  <rect x="60" y="420" width="700" height="300" rx="4" fill="#f8fafc"/>
  
  <!-- Income Bars -->
  <rect x="100" y="600" width="60" height="100" fill="#10b981" rx="4"/>
  <text x="120" y="720" font-family="Arial, sans-serif" font-size="10" fill="#6b7280">Jan</text>
  
  <rect x="200" y="580" width="60" height="120" fill="#10b981" rx="4"/>
  <text x="220" y="720" font-family="Arial, sans-serif" font-size="10" fill="#6b7280">Feb</text>
  
  <rect x="300" y="550" width="60" height="150" fill="#10b981" rx="4"/>
  <text x="320" y="720" font-family="Arial, sans-serif" font-size="10" fill="#6b7280">Mrt</text>
  
  <!-- Expense Bars -->
  <rect x="100" y="620" width="60" height="80" fill="#ef4444" rx="4"/>
  
  <rect x="200" y="640" width="60" height="60" fill="#ef4444" rx="4"/>
  
  <rect x="300" y="650" width="60" height="50" fill="#ef4444" rx="4"/>
  
  <!-- Insights -->
  <rect x="820" y="350" width="340" height="390" rx="8" fill="white" opacity="0.95"/>
  <text x="840" y="390" font-family="Arial, sans-serif" font-size="20" font-weight="bold" fill="#0c4a6e">AI Inzichten</text>
  
  <rect x="840" y="420" width="300" height="100" rx="4" fill="#f0fdf4" stroke="#10b981" stroke-width="2"/>
  <text x="860" y="445" font-family="Arial, sans-serif" font-size="14" font-weight="bold" fill="#065f46">💰 Winst Trend</text>
  <text x="860" y="470" font-family="Arial, sans-serif" font-size="12" fill="#047857">Winst stijgt met 15% per maand</text>
  <text x="860" y="490" font-family="Arial, sans-serif" font-size="12" fill="#047857">Voorspelling: € 5.200 in april</text>
  <text x="860" y="510" font-family="Arial, sans-serif" font-size="12" fill="#10b981">✓ Positieve trend</text>
  
  <rect x="840" y="540" width="300" height="100" rx="4" fill="#fef3c7" stroke="#f59e0b" stroke-width="2"/>
  <text x="860" y="565" font-family="Arial, sans-serif" font-size="14" font-weight="bold" fill="#92400e">📊 Aftrekposten</text>
  <text x="860" y="590" font-family="Arial, sans-serif" font-size="12" fill="#b45309">€ 2.450 aan aftrekposten geïdentificeerd</text>
  <text x="860" y="610" font-family="Arial, sans-serif" font-size="12" fill="#b45309">Potentiële besparing: € 514</text>
  <text x="860" y="630" font-family="Arial, sans-serif" font-size="12" fill="#f59e0b">💡 Actie vereist</text>
  
  <rect x="840" y="660" width="300" height="60" rx="4" fill="#eff6ff" stroke="#0284c7" stroke-width="2"/>
  <text x="860" y="685" font-family="Arial, sans-serif" font-size="14" font-weight="bold" fill="#075985">✅ Rapport Status</text>
  <text x="860" y="705" font-family="Arial, sans-serif" font-size="12" fill="#0c4a6e">Alle rapportages up-to-date en klaar voor gebruik</text>
</svg>

