<svg width="1200" height="800" xmlns="http://www.w3.org/2000/svg">
  <defs>
    <linearGradient id="bg4" x1="0%" y1="0%" x2="100%" y2="100%">
      <stop offset="0%" style="stop-color:#1e293b;stop-opacity:1" />
      <stop offset="100%" style="stop-color:#475569;stop-opacity:1" />
    </linearGradient>
  </defs>
  <rect width="1200" height="800" fill="url(#bg4)"/>
  
  <!-- Header -->
  <rect x="0" y="0" width="1200" height="80" fill="#0f172a" opacity="0.9"/>
  <text x="40" y="50" font-family="Arial, sans-serif" font-size="24" font-weight="bold" fill="white">Landelijk Veiligheids Dashboard</text>
  <circle cx="1100" cy="40" r="8" fill="#10b981"/>
  <text x="1120" y="47" font-family="Arial, sans-serif" font-size="14" fill="white">Live</text>
  
  <!-- KPI Cards -->
  <rect x="40" y="120" width="260" height="150" rx="8" fill="white" opacity="0.95"/>
  <text x="60" y="160" font-family="Arial, sans-serif" font-size="14" fill="#6b7280">Totaal Locaties</text>
  <text x="60" y="200" font-family="Arial, sans-serif" font-size="36" font-weight="bold" fill="#1e293b">247</text>
  <text x="60" y="230" font-family="Arial, sans-serif" font-size="12" fill="#10b981">100% gemonitord</text>
  
  <rect x="320" y="120" width="260" height="150" rx="8" fill="white" opacity="0.95"/>
  <text x="340" y="160" font-family="Arial, sans-serif" font-size="14" fill="#6b7280">Actieve Incidenten</text>
  <text x="340" y="200" font-family="Arial, sans-serif" font-size="36" font-weight="bold" fill="#ef4444">3</text>
  <text x="340" y="230" font-family="Arial, sans-serif" font-size="12" fill="#ef4444">2 kritiek</text>
  
  <rect x="600" y="120" width="260" height="150" rx="8" fill="white" opacity="0.95"/>
  <text x="620" y="160" font-family="Arial, sans-serif" font-size="14" fill="#6b7280">Compliance Score</text>
  <text x="620" y="200" font-family="Arial, sans-serif" font-size="36" font-weight="bold" fill="#10b981">98.5%</text>
  <text x="620" y="230" font-family="Arial, sans-serif" font-size="12" fill="#10b981">↑ 2.3% deze maand</text>
  
  <rect x="880" y="120" width="260" height="150" rx="8" fill="white" opacity="0.95"/>
  <text x="900" y="160" font-family="Arial, sans-serif" font-size="14" fill="#6b7280">Risico Score</text>
  <text x="900" y="200" font-family="Arial, sans-serif" font-size="36" font-weight="bold" fill="#f59e0b">LOW</text>
  <text x="900" y="230" font-family="Arial, sans-serif" font-size="12" fill="#f59e0b">Stabiel</text>
  
  <!-- Map Area -->
  <rect x="40" y="300" width="750" height="440" rx="8" fill="white" opacity="0.95"/>
  <text x="60" y="340" font-family="Arial, sans-serif" font-size="20" font-weight="bold" fill="#1e293b">Landelijke Overzicht</text>
  
  <!-- Simplified Map -->
  <rect x="100" y="380" width="600" height="320" rx="4" fill="#f1f5f9" stroke="#cbd5e1" stroke-width="2"/>
  
  <!-- Location Markers -->
  <circle cx="200" cy="450" r="12" fill="#10b981"/>
  <circle cx="300" cy="500" r="12" fill="#10b981"/>
  <circle cx="400" cy="480" r="12" fill="#f59e0b"/>
  <circle cx="500" cy="520" r="12" fill="#10b981"/>
  <circle cx="600" cy="550" r="12" fill="#ef4444"/>
  <circle cx="250" cy="600" r="12" fill="#10b981"/>
  <circle cx="450" cy="620" r="12" fill="#10b981"/>
  
  <!-- Legend -->
  <rect x="60" y="360" width="200" height="100" rx="4" fill="#f8fafc" stroke="#e2e8f0" stroke-width="1"/>
  <text x="80" y="385" font-family="Arial, sans-serif" font-size="14" font-weight="bold" fill="#1e293b">Status</text>
  <circle cx="90" cy="405" r="6" fill="#10b981"/>
  <text x="110" y="410" font-family="Arial, sans-serif" font-size="12" fill="#1e293b">Compliant</text>
  <circle cx="90" cy="425" r="6" fill="#f59e0b"/>
  <text x="110" y="430" font-family="Arial, sans-serif" font-size="12" fill="#1e293b">Waarschuwing</text>
  <circle cx="90" cy="445" r="6" fill="#ef4444"/>
  <text x="110" y="450" font-family="Arial, sans-serif" font-size="12" fill="#1e293b">Kritiek</text>
  
  <!-- Incident List -->
  <rect x="820" y="300" width="320" height="440" rx="8" fill="white" opacity="0.95"/>
  <text x="840" y="340" font-family="Arial, sans-serif" font-size="20" font-weight="bold" fill="#1e293b">Actieve Incidenten</text>
  
  <rect x="840" y="360" width="280" height="100" rx="4" fill="#fee2e2" stroke="#ef4444" stroke-width="2"/>
  <text x="860" y="385" font-family="Arial, sans-serif" font-size="14" font-weight="bold" fill="#991b1b">KRITIEK</text>
  <text x="860" y="410" font-family="Arial, sans-serif" font-size="12" fill="#1e293b">Locatie: Amsterdam</text>
  <text x="860" y="430" font-family="Arial, sans-serif" font-size="12" fill="#6b7280">Veiligheidsprotocol niet nageleefd</text>
  <text x="860" y="450" font-family="Arial, sans-serif" font-size="11" fill="#dc2626">2 minuten geleden</text>
  
  <rect x="840" y="480" width="280" height="100" rx="4" fill="#fee2e2" stroke="#ef4444" stroke-width="2"/>
  <text x="860" y="505" font-family="Arial, sans-serif" font-size="14" font-weight="bold" fill="#991b1b">KRITIEK</text>
  <text x="860" y="530" font-family="Arial, sans-serif" font-size="12" fill="#1e293b">Locatie: Rotterdam</text>
  <text x="860" y="550" font-family="Arial, sans-serif" font-size="12" fill="#6b7280">Risico detectie: Hoog</text>
  <text x="860" y="570" font-family="Arial, sans-serif" font-size="11" fill="#dc2626">15 minuten geleden</text>
  
  <rect x="840" y="600" width="280" height="100" rx="4" fill="#fef3c7" stroke="#f59e0b" stroke-width="2"/>
  <text x="860" y="625" font-family="Arial, sans-serif" font-size="14" font-weight="bold" fill="#92400e">WAARSCHUWING</text>
  <text x="860" y="650" font-family="Arial, sans-serif" font-size="12" fill="#1e293b">Locatie: Utrecht</text>
  <text x="860" y="670" font-family="Arial, sans-serif" font-size="12" fill="#6b7280">Compliance check vereist</text>
  <text x="860" y="690" font-family="Arial, sans-serif" font-size="11" fill="#b45309">1 uur geleden</text>
</svg>

