<svg width="1200" height="800" xmlns="http://www.w3.org/2000/svg">
  <defs>
    <linearGradient id="bg6" x1="0%" y1="0%" x2="100%" y2="100%">
      <stop offset="0%" style="stop-color:#1e293b;stop-opacity:1" />
      <stop offset="100%" style="stop-color:#475569;stop-opacity:1" />
    </linearGradient>
  </defs>
  <rect width="1200" height="800" fill="url(#bg6)"/>
  
  <!-- Header -->
  <rect x="0" y="0" width="1200" height="80" fill="#0f172a" opacity="0.9"/>
  <text x="40" y="50" font-family="Arial, sans-serif" font-size="24" font-weight="bold" fill="white">AI Risico Voorspelling</text>
  
  <!-- Risk Overview -->
  <rect x="40" y="120" width="1120" height="100" rx="8" fill="white" opacity="0.95"/>
  <text x="60" y="160" font-family="Arial, sans-serif" font-size="18" fill="#6b7280">Huidige Risico Score</text>
  <text x="60" y="200" font-family="Arial, sans-serif" font-size="36" font-weight="bold" fill="#10b981">LOW</text>
  <text x="150" y="200" font-family="Arial, sans-serif" font-size="18" fill="#6b7280">(23/100)</text>
  
  <!-- Risk Factors -->
  <rect x="40" y="250" width="550" height="490" rx="8" fill="white" opacity="0.95"/>
  <text x="60" y="290" font-family="Arial, sans-serif" font-size="20" font-weight="bold" fill="#1e293b">Risicofactoren</text>
  
  <!-- Factor 1 -->
  <rect x="60" y="320" width="510" height="100" rx="4" fill="#f0fdf4" stroke="#10b981" stroke-width="2"/>
  <text x="80" y="350" font-family="Arial, sans-serif" font-size="16" font-weight="bold" fill="#065f46">Compliance Status</text>
  <text x="80" y="375" font-family="Arial, sans-serif" font-size="14" fill="#047857">98.5% van locaties voldoet aan standaarden</text>
  <rect x="80" y="390" width="400" height="20" rx="10" fill="#e5e7eb"/>
  <rect x="80" y="390" width="394" height="20" rx="10" fill="#10b981"/>
  <text x="490" y="405" font-family="Arial, sans-serif" font-size="12" font-weight="bold" fill="#065f46">LOW</text>
  
  <!-- Factor 2 -->
  <rect x="60" y="440" width="510" height="100" rx="4" fill="#fef3c7" stroke="#f59e0b" stroke-width="2"/>
  <text x="80" y="470" font-family="Arial, sans-serif" font-size="16" font-weight="bold" fill="#92400e">Incident Frequentie</text>
  <text x="80" y="495" font-family="Arial, sans-serif" font-size="14" fill="#b45309">3 actieve incidenten gedetecteerd</text>
  <rect x="80" y="510" width="400" height="20" rx="10" fill="#e5e7eb"/>
  <rect x="80" y="510" width="200" height="20" rx="10" fill="#f59e0b"/>
  <text x="490" y="525" font-family="Arial, sans-serif" font-size="12" font-weight="bold" fill="#92400e">MEDIUM</text>
  
  <!-- Factor 3 -->
  <rect x="60" y="560" width="510" height="100" rx="4" fill="#f0fdf4" stroke="#10b981" stroke-width="2"/>
  <text x="80" y="590" font-family="Arial, sans-serif" font-size="16" font-weight="bold" fill="#065f46">Training Status</text>
  <text x="80" y="615" font-family="Arial, sans-serif" font-size="14" fill="#047857">95% van medewerkers getraind</text>
  <rect x="80" y="630" width="400" height="20" rx="10" fill="#e5e7eb"/>
  <rect x="80" y="630" width="380" height="20" rx="10" fill="#10b981"/>
  <text x="490" y="645" font-family="Arial, sans-serif" font-size="12" font-weight="bold" fill="#065f46">LOW</text>
  
  <!-- Factor 4 -->
  <rect x="60" y="680" width="510" height="100" rx="4" fill="#fee2e2" stroke="#ef4444" stroke-width="2"/>
  <text x="80" y="710" font-family="Arial, sans-serif" font-size="16" font-weight="bold" fill="#991b1b">Equipment Status</text>
  <text x="80" y="735" font-family="Arial, sans-serif" font-size="14" fill="#dc2626">2 kritieke apparaten vereisen onderhoud</text>
  <rect x="80" y="750" width="400" height="20" rx="10" fill="#e5e7eb"/>
  <rect x="80" y="750" width="120" height="20" rx="10" fill="#ef4444"/>
  <text x="490" y="765" font-family="Arial, sans-serif" font-size="12" font-weight="bold" fill="#991b1b">HIGH</text>
  
  <!-- Predictions -->
  <rect x="620" y="250" width="540" height="490" rx="8" fill="white" opacity="0.95"/>
  <text x="640" y="290" font-family="Arial, sans-serif" font-size="20" font-weight="bold" fill="#1e293b">7-Daagse Voorspelling</text>
  
  <!-- Prediction Chart -->
  <rect x="640" y="320" width="500" height="300" rx="4" fill="#f8fafc"/>
  
  <!-- Prediction Line -->
  <polyline points="660,580 700,560 740,550 780,540 820,530 860,525 900,520 940,515 980,510 1020,505 1060,500 1100,495" 
            fill="none" stroke="#3b82f6" stroke-width="3"/>
  
  <!-- Risk Zones -->
  <rect x="660" y="400" width="440" height="40" rx="4" fill="#fee2e2" opacity="0.3"/>
  <text x="680" y="425" font-family="Arial, sans-serif" font-size="12" fill="#991b1b">HIGH RISK ZONE</text>
  
  <rect x="660" y="460" width="440" height="40" rx="4" fill="#fef3c7" opacity="0.3"/>
  <text x="680" y="485" font-family="Arial, sans-serif" font-size="12" fill="#92400e">MEDIUM RISK ZONE</text>
  
  <rect x="660" y="520" width="440" height="40" rx="4" fill="#f0fdf4" opacity="0.3"/>
  <text x="680" y="545" font-family="Arial, sans-serif" font-size="12" fill="#065f46">LOW RISK ZONE</text>
  
  <!-- AI Recommendations -->
  <rect x="640" y="640" width="500" height="80" rx="4" fill="#eff6ff" stroke="#3b82f6" stroke-width="2"/>
  <text x="660" y="670" font-family="Arial, sans-serif" font-size="14" font-weight="bold" fill="#1e3a8a">AI Aanbeveling</text>
  <text x="660" y="695" font-family="Arial, sans-serif" font-size="12" fill="#1e293b">Voorspeld risico: Equipment falen binnen 7 dagen</text>
  <text x="660" y="715" font-family="Arial, sans-serif" font-size="12" fill="#1e40af">Actie: Plan preventief onderhoud voor 2 apparaten</text>
</svg>

